<svg width="54" height="25" viewBox="0 0 54 25" fill="none" xmlns="http://www.w3.org/2000/svg">
<path d="M21.5994 14.2C18.3994 14.2 15.3994 15.5 13.2994 17.6C13.1994 17.7 13.0994 17.8 12.9994 17.9C11.6994 19.1 9.99937 19.9 8.09937 19.9C4.09937 19.9 0.899414 16.7 0.899414 12.7C0.899414 8.70003 4.09937 5.50002 8.09937 5.50002C9.89937 5.50002 11.5994 6.20003 12.8994 7.40003C13.0994 7.60003 13.2994 7.80002 13.4994 8.00002C15.5994 10 18.4994 11.3 21.5994 11.3C25.5994 11.3 29.0993 9.40003 31.1993 6.40003C31.2993 6.20003 31.4994 6.00002 31.5994 5.80002C33.7994 2.80002 37.2993 0.900024 41.1993 0.900024C47.7993 0.900024 53.0994 6.20002 53.0994 12.8C53.0994 19.4 47.7993 24.7 41.1993 24.7C37.1993 24.7 33.5994 22.7 31.4994 19.6C31.3994 19.5 31.3994 19.4 31.2994 19.3C29.1994 16.3 25.5994 14.2 21.5994 14.2Z" fill="white"/>
</svg>
