<svg width="53" height="52" viewBox="0 0 53 52" fill="none" xmlns="http://www.w3.org/2000/svg">
<path d="M50.1998 32.8C48.7998 30.9 47.9998 28.5 47.9998 26C47.9998 23.4 48.7998 21.1 50.1998 19.2C50.2998 19 50.3998 18.9 50.4998 18.7C51.8998 16.8 52.6998 14.4 52.6998 11.8C52.7998 5.2 47.4998 0 40.9998 0C38.3998 0 36.0998 0.800001 34.1998 2.2C33.9998 2.3 33.8998 2.4 33.6998 2.6C31.7998 4 29.3998 4.8 26.7998 4.8C24.1998 4.8 21.8998 4 19.9998 2.6C19.7998 2.5 19.6998 2.4 19.4998 2.2C17.5998 0.800001 15.1998 0 12.5998 0C6.0998 0 0.799805 5.3 0.799805 11.8C0.799805 14.4 1.6998 16.8 3.0998 18.8C3.1998 18.9 3.1998 19 3.2998 19C4.6998 20.9 5.5998 23.4 5.5998 26C5.5998 28.6 4.7998 31 3.2998 33C3.1998 33.1 3.1998 33.2 3.0998 33.2C1.6998 35.2 0.799805 37.6 0.799805 40.2C0.799805 46.7 6.0998 52 12.5998 52C15.0998 52 17.3998 51.2 19.2998 49.9C19.2998 49.9 19.2998 49.9 19.3998 49.8C19.5998 49.6 19.8998 49.4 20.0998 49.3C21.9998 48 24.2998 47.2 26.7998 47.2C29.2998 47.2 31.5998 48 33.4998 49.3C33.4998 49.3 33.4998 49.3 33.5998 49.4C33.7998 49.6 34.0998 49.8 34.2998 49.9C36.1998 51.2 38.4998 52 40.9998 52C47.4998 52 52.7998 46.7 52.7998 40.2C52.7998 37.6 51.9998 35.3 50.5998 33.3C50.4998 33.1 50.2998 32.9 50.1998 32.8Z" fill="white"/>
</svg>
